<?xml version="1.0" encoding="utf-8"?>
<!-- Generator: Adobe Illustrator 16.0.0, SVG Export Plug-In . SVG Version: 6.00 Build 0)  -->
<!DOCTYPE svg PUBLIC "-//W3C//DTD SVG 1.0//EN" "http://www.w3.org/TR/2001/REC-SVG-20010904/DTD/svg10.dtd">
<svg version="1.0" id="Livello_1" xmlns="http://www.w3.org/2000/svg" xmlns:xlink="http://www.w3.org/1999/xlink" x="0px" y="0px"
	 width="1417.32px" height="1417.32px" viewBox="0 0 1417.32 1417.32" enable-background="new 0 0 1417.32 1417.32"
	 xml:space="preserve">
<g>
	<path fill="#00A551" d="M455.573,304.848c2.425,0,4.862,0.179,7.22,0.384c5.26,0.461,10.339,1.643,15.136,3.181
		c25.613,8.338,44.916,30.604,49.034,57.871c4.86,1.591,9.876,2.668,15.07,3.208c-3.22-37.042-29.743-67.363-64.784-76.419
		c-4.683-1.23-9.543-2.053-14.508-2.463c-2.372-0.154-4.744-0.256-7.169-0.256c-2.706,0-5.245,0.103-7.837,0.385
		c0.167,2.309,0.284,4.592,0.284,7.003c0,2.54-0.116,5.079-0.398,7.542C450.277,305.027,452.868,304.848,455.573,304.848"/>
	<path fill="#ED334E" d="M549.371,210.652c-45.661,0-83.126,35.246-86.628,80.035c4.965,0.333,9.825,1.155,14.508,2.386
		c2.257-37.863,33.694-67.953,72.121-67.953c39.953,0,72.352,32.424,72.352,72.391c0,39.941-32.399,72.34-72.352,72.34
		c-2.488,0-4.912-0.128-7.337-0.359c-5.193-0.54-10.209-1.617-15.07-3.208c-25.614-8.336-44.917-30.628-49.034-57.871
		c-4.797-1.538-9.876-2.719-15.136-3.206c3.285,37.068,29.808,67.44,64.849,76.444c4.683,1.179,9.479,2,14.442,2.437
		c2.437,0.205,4.797,0.282,7.286,0.282c48.021,0,86.91-38.89,86.91-86.859C636.281,249.542,597.391,210.652,549.371,210.652"/>
	<path fill="#0080C7" d="M259.629,290.917c-3.387-44.943-40.8-80.266-86.628-80.266c-47.97,0-86.846,38.89-86.846,86.859
		c0,47.97,38.876,86.859,86.846,86.859c2.604,0,5.195-0.077,7.619-0.282c-0.051-2.232-0.219-4.413-0.219-6.67
		c0-2.617,0.167-5.335,0.386-8.003c-2.54,0.282-5.13,0.436-7.786,0.436c-39.953,0-72.403-32.399-72.403-72.34
		c0-39.966,32.45-72.391,72.403-72.391c38.606,0,70.042,30.295,72.186,68.312c0.051,1.36,0.217,2.693,0.217,4.079
		c0,3.9-0.384,7.645-1.013,11.339c-4.231,26.908-23.252,48.815-48.417,57.254c-0.68,3.695-1.079,7.465-1.079,11.313
		c0,1.41,0.18,2.77,0.231,4.103c34.708-9.131,61.002-39.247,64.387-76.007c0.231-2.617,0.398-5.31,0.398-8.003
		C259.912,295.279,259.795,293.098,259.629,290.917"/>
	<path fill="#FBB031" d="M267.248,305.104c2.54,0,4.963,0.128,7.4,0.359c5.182,0.513,10.209,1.642,15.058,3.206
		c25.626,8.364,44.866,30.579,49.048,57.873c4.847,1.538,9.823,2.642,15.07,3.155c-3.271-36.965-29.743-67.363-64.784-76.342
		c-4.746-1.205-9.543-2.025-14.508-2.437c-2.372-0.179-4.795-0.333-7.284-0.333c-2.54,0-5.13,0.154-7.619,0.333
		c0.166,2.181,0.282,4.361,0.282,6.593c0,2.693-0.167,5.387-0.398,8.003C262.053,305.232,264.657,305.104,267.248,305.104"/>
	<path fill="#FBB031" d="M339.432,381.907c-2.257,37.863-33.643,67.927-72.184,67.927c-38.542,0-69.979-30.321-72.071-68.313
		c-0.103-1.333-0.282-2.693-0.282-4.103c0-3.849,0.461-7.619,1.079-11.313c4.18-26.882,23.189-48.815,48.417-57.254
		c0.629-3.695,1.013-7.439,1.013-11.339c0-1.36-0.166-2.719-0.217-4.079c-34.773,9.158-61.014,39.3-64.399,75.983
		c-0.219,2.668-0.386,5.387-0.386,8.003c0,2.257,0.167,4.438,0.219,6.617c3.45,44.892,40.915,80.344,86.628,80.344
		c45.712,0,83.125-35.325,86.627-80.086C348.963,383.881,344.115,383.061,339.432,381.907"/>
	<path fill="#231F20" d="M361.095,370.081c-2.475,0-4.847-0.077-7.271-0.384c-5.195-0.513-10.223-1.617-15.07-3.155
		c-25.628-8.39-44.917-30.63-49.099-57.873c-4.797-1.564-9.825-2.693-15.007-3.206c3.206,37.017,29.731,67.414,64.784,76.444
		c4.683,1.154,9.531,1.974,14.443,2.386c2.425,0.231,4.797,0.256,7.22,0.256c2.721,0,5.312-0.077,7.851-0.256
		c-0.167-2.386-0.335-4.669-0.335-7.106c0-2.565,0.167-5.002,0.386-7.567C366.407,369.927,363.816,370.081,361.095,370.081"/>
	<path fill="#231F20" d="M447.736,290.738c-3.616-44.764-40.978-79.881-86.641-79.881c-45.647,0-83.062,35.248-86.563,80.061
		c4.965,0.412,9.762,1.232,14.508,2.437c2.257-37.939,33.578-67.978,72.056-67.978c38.492,0,69.814,30.039,72.135,67.875
		c0.167,1.463,0.219,2.95,0.219,4.515c0,3.695-0.333,7.311-0.899,10.851c-4.001,27.089-23.138,49.202-48.482,57.692
		c-0.564,3.566-0.846,7.157-0.846,10.877c0,1.589,0.063,3.052,0.114,4.515c34.938-9.158,61.182-39.556,64.285-76.419
		c0.282-2.462,0.398-5.002,0.398-7.516C448.02,295.33,447.903,293.047,447.736,290.738"/>
	<path fill="#00A551" d="M527.643,381.651c-2.258,37.863-33.629,67.953-72.069,67.953c-38.492,0-69.863-30.09-72.172-67.901
		c-0.116-1.463-0.23-2.977-0.23-4.515c0-3.72,0.333-7.311,0.897-10.877c4.131-27.062,23.203-49.174,48.482-57.692
		c0.565-3.54,0.899-7.181,0.899-10.876c0-1.54-0.051-3.027-0.219-4.49c-34.822,9.159-61.065,39.505-64.232,76.368
		c-0.219,2.565-0.386,5.002-0.386,7.567c0,2.386,0.167,4.746,0.335,7.106c3.553,44.634,40.978,79.803,86.627,79.803
		c45.597,0,83.024-35.271,86.512-80.008C537.122,383.65,532.325,382.83,527.643,381.651"/>
	<path fill="#0054A5" d="M787.128,703.201c-11.953,0-22.907-2.181-32.963-6.465c-10.03-4.361-18.776-10.287-26.165-17.777
		c-7.336-7.516-13.16-16.391-17.393-26.602c-4.182-10.235-6.311-21.085-6.311-32.732v-0.436c0-11.594,2.078-22.472,6.209-32.63
		c4.103-10.081,9.927-18.956,17.366-26.626c7.517-7.644,16.313-13.699,26.523-18.112c10.235-4.411,21.522-6.617,33.938-6.617
		c7.388,0,14.159,0.59,20.316,1.846c6.079,1.258,11.673,2.952,16.752,5.209c5.13,2.256,9.874,4.925,14.158,8.029
		c4.285,3.104,8.467,6.489,12.288,10.235l-18.315,21.06c-6.517-6.002-13.392-10.876-20.675-14.596
		c-7.209-3.719-15.496-5.592-24.832-5.592c-7.721,0-14.827,1.54-21.446,4.541c-6.541,3.027-12.236,7.157-17.033,12.313
		c-4.848,5.182-8.516,11.26-11.184,18.212c-2.591,6.978-3.899,14.366-3.899,22.267v0.461c0,7.9,1.309,15.314,3.899,22.395
		c2.668,7.029,6.336,13.185,11.184,18.471c4.797,5.233,10.492,9.362,17.033,12.388c6.619,3.003,13.726,4.541,21.446,4.541
		c9.953,0,18.469-1.872,25.523-5.643c7.106-3.823,14.159-8.979,21.163-15.494l18.342,18.597c-4.182,4.489-8.594,8.44-13.16,11.903
		c-4.566,3.488-9.49,6.517-14.725,9.056c-5.233,2.591-11.005,4.513-17.34,5.848C801.621,702.61,794.644,703.201,787.128,703.201"/>
	<path fill="#0054A5" d="M968.618,703.201c-12.519,0-23.96-2.181-34.298-6.619c-10.389-4.412-19.265-10.44-26.704-17.956
		c-7.439-7.593-13.185-16.495-17.393-26.602c-4.154-10.081-6.258-20.906-6.258-32.399v-0.436c0-11.415,2.104-22.241,6.258-32.374
		c4.208-10.132,10.056-19.033,17.623-26.651c7.619-7.645,16.547-13.776,26.91-18.24c10.389-4.462,21.855-6.72,34.374-6.72
		s23.984,2.207,34.375,6.617c10.26,4.413,19.237,10.417,26.625,17.958c7.465,7.593,13.236,16.468,17.444,26.601
		c4.182,10.107,6.208,20.906,6.208,32.348v0.461c0,11.467-2.026,22.215-6.208,32.399c-4.208,10.107-10.107,19.035-17.649,26.627
		c-7.567,7.696-16.546,13.774-26.935,18.29C992.679,700.969,981.162,703.201,968.618,703.201 M969.131,676.984
		c8.003,0,15.34-1.538,22.062-4.541c6.72-3.026,12.415-7.104,17.236-12.286c4.721-5.184,8.518-11.237,11.16-18.214
		c2.693-7.003,4.079-14.364,4.079-22.318v-0.436c0-7.901-1.386-15.314-4.079-22.369c-2.643-7.106-6.439-13.159-11.288-18.315
		c-4.847-5.233-10.671-9.312-17.495-12.416c-6.72-3.104-14.107-4.694-22.188-4.694c-7.954,0-15.34,1.54-22.062,4.541
		c-6.67,3.027-12.364,7.157-17.136,12.313c-4.822,5.182-8.541,11.26-11.234,18.212c-2.721,6.978-4.08,14.366-4.08,22.267v0.461
		c0,7.9,1.359,15.314,4.08,22.395c2.693,7.029,6.463,13.159,11.337,18.341c4.797,5.158,10.62,9.312,17.443,12.416
		C953.74,675.395,961.128,676.984,969.131,676.984"/>
	<polygon fill="#0054A5" points="1104.241,537.949 1130.637,537.949 1217.496,650.307 1217.496,537.949 1245.764,537.949 
		1245.764,700.431 1221.959,700.431 1132.587,584.842 1132.587,700.431 1104.241,700.431 	"/>
	<rect x="1310.408" y="537.949" fill="#0054A5" width="28.268" height="162.481"/>
	<g>
		<g>
			<defs>
				<polygon id="SVGID_1_" points="276.675,694.351 276.675,1132.824 361.095,1188.412 445.697,1131.284 445.697,694.351 				"/>
			</defs>
			<clipPath id="SVGID_2_">
				<use xlink:href="#SVGID_1_"  overflow="visible"/>
			</clipPath>
			
				<linearGradient id="SVGID_3_" gradientUnits="userSpaceOnUse" x1="275.3203" y1="1275.4492" x2="284.4366" y2="1275.4492" gradientTransform="matrix(18.6561 0 0 -18.6561 -4862.2344 24736.2812)">
				<stop  offset="0" style="stop-color:#DBDCDD"/>
				<stop  offset="0.271" style="stop-color:#F1F1F2"/>
				<stop  offset="0.4993" style="stop-color:#FFFFFF"/>
				<stop  offset="0.6589" style="stop-color:#F2F3F3"/>
				<stop  offset="1" style="stop-color:#DBDCDD"/>
			</linearGradient>
			<rect x="276.675" y="694.351" clip-path="url(#SVGID_2_)" fill="url(#SVGID_3_)" width="169.022" height="494.062"/>
		</g>
		<g>
			<defs>
				<path id="SVGID_4_" d="M123.403,694.351v204.295c0,134.263,100.454,197.7,101.467,198.317l52.086,36.144V694.351H123.403z"/>
			</defs>
			<clipPath id="SVGID_5_">
				<use xlink:href="#SVGID_4_"  overflow="visible"/>
			</clipPath>
			
				<linearGradient id="SVGID_6_" gradientUnits="userSpaceOnUse" x1="266.9956" y1="1276.1113" x2="276.1128" y2="1276.1113" gradientTransform="matrix(18.2335 0 0 -18.2335 -4757.5938 24181.6875)">
				<stop  offset="0" style="stop-color:#005A29"/>
				<stop  offset="0.6128" style="stop-color:#008E46"/>
				<stop  offset="1" style="stop-color:#00AA56"/>
			</linearGradient>
			<rect x="123.403" y="694.351" clip-path="url(#SVGID_5_)" fill="url(#SVGID_6_)" width="153.554" height="438.756"/>
		</g>
		<g>
			<defs>
				<path id="SVGID_7_" d="M445.017,694.351v437.448l51.587-34.836c1.295-0.822,102.147-64.388,102.147-198.317V694.351H445.017z"/>
			</defs>
			<clipPath id="SVGID_8_">
				<use xlink:href="#SVGID_7_"  overflow="visible"/>
			</clipPath>
			
				<linearGradient id="SVGID_9_" gradientUnits="userSpaceOnUse" x1="283.3491" y1="1276.2559" x2="292.4627" y2="1276.2559" gradientTransform="matrix(18.3043 0 0 -18.3043 -4741.5 24274.0469)">
				<stop  offset="0" style="stop-color:#EE363C"/>
				<stop  offset="0.255" style="stop-color:#CC2E30"/>
				<stop  offset="0.5728" style="stop-color:#A92524"/>
				<stop  offset="0.8326" style="stop-color:#93201D"/>
				<stop  offset="1" style="stop-color:#8B1E1A"/>
			</linearGradient>
			<rect x="445.017" y="694.351" clip-path="url(#SVGID_8_)" fill="url(#SVGID_9_)" width="153.735" height="437.448"/>
		</g>
		<g>
			<defs>
				<rect id="SVGID_10_" x="123.403" y="540.232" width="475.348" height="158.864"/>
			</defs>
			<clipPath id="SVGID_11_">
				<use xlink:href="#SVGID_10_"  overflow="visible"/>
			</clipPath>
			
				<linearGradient id="SVGID_12_" gradientUnits="userSpaceOnUse" x1="281.5273" y1="1299.2773" x2="290.645" y2="1299.2773" gradientTransform="matrix(52.1359 0 0 -52.1359 -14554.2812 68358.6562)">
				<stop  offset="0" style="stop-color:#004083"/>
				<stop  offset="0.5006" style="stop-color:#037BC0"/>
				<stop  offset="1" style="stop-color:#004083"/>
			</linearGradient>
			<rect x="123.403" y="540.232" clip-path="url(#SVGID_11_)" fill="url(#SVGID_12_)" width="475.348" height="158.864"/>
		</g>
		<g>
			<defs>
				<path id="SVGID_13_" d="M226.499,1095.653c-1.013-0.589-100.223-61.95-100.223-193.597l-0.731-359.515h470.719l-0.668,359.515
					c0,131.313-99.222,193.008-100.518,193.776l-133.801,90.347h-0.68L226.499,1095.653z M111.27,528.304l0.731,373.753
					c0,139.574,106.032,205.167,106.777,205.577l137.47,92.81h9.362l137.149-92.579c1.064-0.641,107.112-66.233,107.112-205.73
					l0.729-373.83H111.27z"/>
			</defs>
			<clipPath id="SVGID_14_">
				<use xlink:href="#SVGID_13_"  overflow="visible"/>
			</clipPath>
			
				<linearGradient id="SVGID_15_" gradientUnits="userSpaceOnUse" x1="282.5879" y1="1297.7148" x2="291.7053" y2="1297.7148" gradientTransform="matrix(73.8407 0 0 -73.8407 -20837.4375 96688.5)">
				<stop  offset="0" style="stop-color:#8D7732"/>
				<stop  offset="0.1683" style="stop-color:#8D7732"/>
				<stop  offset="0.3551" style="stop-color:#A7904C"/>
				<stop  offset="0.5044" style="stop-color:#F3EECA"/>
				<stop  offset="0.6784" style="stop-color:#C1AE7A"/>
				<stop  offset="0.8329" style="stop-color:#877230"/>
				<stop  offset="1" style="stop-color:#877230"/>
			</linearGradient>
			<rect x="111.27" y="528.304" clip-path="url(#SVGID_14_)" fill="url(#SVGID_15_)" width="499.332" height="672.14"/>
		</g>
		<g>
			<defs>
				<polygon id="SVGID_16_" points="109.114,525.995 113.744,530.433 608.397,530.664 613.09,525.995 				"/>
			</defs>
			<clipPath id="SVGID_17_">
				<use xlink:href="#SVGID_16_"  overflow="visible"/>
			</clipPath>
			
				<linearGradient id="SVGID_18_" gradientUnits="userSpaceOnUse" x1="281.7227" y1="1301.0137" x2="290.8369" y2="1301.0137" gradientTransform="matrix(55.2941 0 0 -55.2941 -15468.5 72466.6875)">
				<stop  offset="0" style="stop-color:#C6B885"/>
				<stop  offset="0.5006" style="stop-color:#BAA769"/>
				<stop  offset="1" style="stop-color:#C1AE7A"/>
			</linearGradient>
			<rect x="109.114" y="525.995" clip-path="url(#SVGID_17_)" fill="url(#SVGID_18_)" width="503.976" height="4.669"/>
		</g>
		<g>
			<defs>
				<polygon id="SVGID_19_" points="123.338,540.207 128.084,544.927 594.12,544.927 598.803,540.207 				"/>
			</defs>
			<clipPath id="SVGID_20_">
				<use xlink:href="#SVGID_19_"  overflow="visible"/>
			</clipPath>
			
				<linearGradient id="SVGID_21_" gradientUnits="userSpaceOnUse" x1="281.5273" y1="1300.5938" x2="290.6455" y2="1300.5938" gradientTransform="matrix(52.1442 0 0 -52.1442 -14556.6875 68361)">
				<stop  offset="0" style="stop-color:#C6B885"/>
				<stop  offset="0.5006" style="stop-color:#BAA769"/>
				<stop  offset="1" style="stop-color:#C1AE7A"/>
			</linearGradient>
			<rect x="123.338" y="540.207" clip-path="url(#SVGID_20_)" fill="url(#SVGID_21_)" width="475.464" height="4.72"/>
		</g>
		<g>
			<defs>
				<path id="SVGID_22_" d="M594.069,544.927v357.129c0,129.133-99.107,191.16-100.121,191.878l-132.853,89.655l1.079,4.95
					l134.314-90.731c4.119-2.539,102.315-64.055,102.264-195.752v-361.85L594.069,544.927z"/>
			</defs>
			<clipPath id="SVGID_23_">
				<use xlink:href="#SVGID_22_"  overflow="visible"/>
			</clipPath>
			
				<linearGradient id="SVGID_24_" gradientUnits="userSpaceOnUse" x1="290.9092" y1="1305.3477" x2="300.0271" y2="1305.3477" gradientTransform="matrix(-28.9761 72.5684 72.5684 28.9761 -85689.1562 -58392.0625)">
				<stop  offset="0" style="stop-color:#8D7732"/>
				<stop  offset="0.2562" style="stop-color:#B9A66F"/>
				<stop  offset="0.2995" style="stop-color:#C1AE7A"/>
				<stop  offset="0.5044" style="stop-color:#D8CB8B"/>
				<stop  offset="0.8257" style="stop-color:#C1AE7A"/>
				<stop  offset="1" style="stop-color:#755D0D"/>
			</linearGradient>
			<polygon clip-path="url(#SVGID_23_)" fill="url(#SVGID_24_)" points="822.066,629.373 566.071,1270.371 137.844,1099.349 
				393.725,458.401 			"/>
		</g>
		<g>
			<defs>
				<path id="SVGID_25_" d="M123.338,540.207l0.796,361.85c0,131.697,97.465,193.213,101.582,195.752l134.316,90.731l1.063-4.95
					l-132.839-89.655c-1.077-0.718-99.492-62.745-99.492-191.878l-0.68-357.129L123.338,540.207L123.338,540.207z"/>
			</defs>
			<clipPath id="SVGID_26_">
				<use xlink:href="#SVGID_25_"  overflow="visible"/>
			</clipPath>
			
				<linearGradient id="SVGID_27_" gradientUnits="userSpaceOnUse" x1="289.3062" y1="1309.4082" x2="298.4237" y2="1309.4082" gradientTransform="matrix(29.9203 74.9331 -74.9331 29.9203 89578.6562 -60306.375)">
				<stop  offset="0" style="stop-color:#8D7732"/>
				<stop  offset="0.2562" style="stop-color:#B9A66F"/>
				<stop  offset="0.2995" style="stop-color:#C1AE7A"/>
				<stop  offset="0.5044" style="stop-color:#D8CB8B"/>
				<stop  offset="0.8257" style="stop-color:#C1AE7A"/>
				<stop  offset="1" style="stop-color:#755D0D"/>
			</linearGradient>
			<polygon clip-path="url(#SVGID_26_)" fill="url(#SVGID_27_)" points="-99.913,629.373 156.07,1270.371 584.36,1099.349 
				328.363,458.401 			"/>
		</g>
		<g>
			<polygon fill="#BCA74F" points="361.095,1183.59 362.123,1188.54 360.032,1188.54 			"/>
			<polygon fill="#C3AE5E" points="357.095,1198.109 365.046,1198.109 366.521,1202.777 355.683,1202.777 			"/>
		</g>
		<g>
			<defs>
				<path id="SVGID_28_" d="M109.114,902.057c0,139.959,107.623,207.013,108.534,207.553l138.035,93.168l1.412-4.668
					l-136.907-92.426c-1.077-0.641-106.444-65.464-106.444-203.627V530.433l-4.63-4.438V902.057z"/>
			</defs>
			<clipPath id="SVGID_29_">
				<use xlink:href="#SVGID_28_"  overflow="visible"/>
			</clipPath>
			
				<linearGradient id="SVGID_30_" gradientUnits="userSpaceOnUse" x1="276.436" y1="1289.502" x2="285.5516" y2="1289.502" gradientTransform="matrix(32.0601 0 0 -32.0601 -8753.4688 42205.9531)">
				<stop  offset="0" style="stop-color:#C1AE7A"/>
				<stop  offset="0.0359" style="stop-color:#C1AE7A"/>
				<stop  offset="0.3201" style="stop-color:#DECF9E"/>
				<stop  offset="0.582" style="stop-color:#C2B677"/>
				<stop  offset="1" style="stop-color:#877230"/>
			</linearGradient>
			<rect x="109.114" y="525.995" clip-path="url(#SVGID_29_)" fill="url(#SVGID_30_)" width="247.98" height="676.782"/>
		</g>
		<g>
			<defs>
				<path id="SVGID_31_" d="M608.397,530.664v371.495c-0.731,138.061-105.302,202.884-106.381,203.524l-136.97,92.426l1.475,4.668
					l137.983-93.168c0.962-0.54,107.842-67.594,108.585-207.553V525.995L608.397,530.664z"/>
			</defs>
			<clipPath id="SVGID_32_">
				<use xlink:href="#SVGID_31_"  overflow="visible"/>
			</clipPath>
			
				<linearGradient id="SVGID_33_" gradientUnits="userSpaceOnUse" x1="289.979" y1="1305.1895" x2="299.0972" y2="1305.1895" gradientTransform="matrix(-31.4501 82.6757 82.6757 31.4501 -98150.5312 -64547)">
				<stop  offset="0" style="stop-color:#BBA97C"/>
				<stop  offset="0.2995" style="stop-color:#C1AE7A"/>
				<stop  offset="0.5042" style="stop-color:#8D7732"/>
				<stop  offset="0.6486" style="stop-color:#B7A46F"/>
				<stop  offset="0.7177" style="stop-color:#CCBB8E"/>
				<stop  offset="1" style="stop-color:#B4A071"/>
			</linearGradient>
			<polygon clip-path="url(#SVGID_32_)" fill="url(#SVGID_33_)" points="837.997,611.52 581.705,1285.173 140.153,1117.254 
				396.432,443.523 			"/>
		</g>
		<g>
			<defs>
				<path id="SVGID_34_" d="M171.822,661.952h14.107v-81.009h-14.107V661.952z M206.978,580.942v13.185h25.729v67.825h14.34v-67.825
					h25.729v-13.185H206.978z M377.809,580.942v81.009h52.65v-12.8h-38.542v-68.209H377.809z M446.71,661.952h14.172v-81.009H446.71
					V661.952z M316.744,597.36l13.993,32.474h-27.872L316.744,597.36z M310.984,580.327l-35.67,81.625h14.622l8.299-19.522h38.312
					l8.297,19.522h15.02l-35.67-81.625H310.984z M522.731,597.36l13.993,32.474h-27.935L522.731,597.36z M516.356,580.327
					l-35.67,81.625h14.622l8.299-19.522h38.312l8.246,19.522h15.058l-35.656-81.625H516.356z"/>
			</defs>
			<clipPath id="SVGID_35_">
				<use xlink:href="#SVGID_34_"  overflow="visible"/>
			</clipPath>
			
				<linearGradient id="SVGID_36_" gradientUnits="userSpaceOnUse" x1="280.9673" y1="1298.2559" x2="290.0854" y2="1298.2559" gradientTransform="matrix(43.1463 0 0 -43.1463 -11950.9062 56636.125)">
				<stop  offset="0" style="stop-color:#AE9140"/>
				<stop  offset="0.2707" style="stop-color:#D0B97D"/>
				<stop  offset="0.2995" style="stop-color:#D4BE84"/>
				<stop  offset="0.5044" style="stop-color:#F3EECA"/>
				<stop  offset="0.7177" style="stop-color:#D4BE84"/>
				<stop  offset="1" style="stop-color:#AF9141"/>
			</linearGradient>
			<rect x="171.822" y="580.327" clip-path="url(#SVGID_35_)" fill="url(#SVGID_36_)" width="393.401" height="81.625"/>
		</g>
	</g>
</g>
</svg>
